Coordinates
version=1
nRows=10
nColumns=40
inDegrees=yes

Units are S.I. units (second, meters, Newtons, ...)
If the header above contains a line with 'inDegrees', this indicates whether rotational values are in degrees (yes) or radians (no).

endheader
time	pelvis_tilt	pelvis_list	pelvis_rotation	pelvis_tx	pelvis_ty	pelvis_tz	hip_flexion_r	hip_adduction_r	hip_rotation_r	knee_angle_r	knee_angle_r_beta	ankle_angle_r	subtalar_angle_r	mtp_angle_r	hip_flexion_l	hip_adduction_l	hip_rotation_l	knee_angle_l	knee_angle_l_beta	ankle_angle_l	subtalar_angle_l	mtp_angle_l	lumbar_extension	lumbar_bending	lumbar_rotation	arm_flex_r	arm_add_r	arm_rot_r	elbow_flex_r	pro_sup_r	wrist_flex_r	wrist_dev_r	arm_flex_l	arm_add_l	arm_rot_l	elbow_flex_l	pro_sup_l	wrist_flex_l	wrist_dev_l
      7.12500000	     43.01959050	     -0.32937615	   -175.14377957	      0.40097512	      0.76936974	     -0.57862693	     80.05524463	    -17.82065267	     -2.04105647	     35.98664801	      0.62808549	      1.13717765	      0.00000000	      0.00000000	     79.27563937	     -6.37071611	      0.07910266	     34.15086452	      0.59604503	      0.40659684	      0.00000000	      0.00000000	    -45.18276409	      0.00460659	      0.39484335	     63.24730623	    -23.16573683	     48.12468908	     25.67695680	     60.81289282	      0.00000000	      0.00000000	     69.40896134	     -0.50856778	     11.54276624	     13.89118221	     27.94263539	      0.00000000	      0.00000000
      7.13000000	     42.66014302	     -0.46756239	   -175.32215722	      0.40051894	      0.77043590	     -0.57894992	     79.60439280	    -17.70058116	     -2.10859713	     35.83438898	      0.62542807	      1.01015590	      0.00000000	      0.00000000	     78.79122736	     -6.58379125	     -0.37679923	     34.10024683	      0.59516158	      0.43672908	      0.00000000	      0.00000000	    -45.49803167	     -0.25910489	      0.45636323	     63.34250873	    -23.46953323	     49.35578060	     25.80383041	     61.45676431	      0.00000000	      0.00000000	     69.56407486	     -0.43880526	     11.79096363	     13.53100616	     27.68662274	      0.00000000	      0.00000000
      7.13500000	     42.57402640	     -0.24492380	   -175.31319333	      0.40063646	      0.77103468	     -0.57865922	     79.30219514	    -17.65582399	     -2.36575359	     35.57361355	      0.62087668	      0.93842142	      0.00000000	      0.00000000	     78.70838029	     -6.59334957	     -0.11692891	     33.97604673	      0.59299388	      0.34150970	      0.00000000	      0.00000000	    -45.47094028	     -0.04020587	      0.56746583	     63.32531525	    -23.33437867	     49.26614707	     25.66993594	     61.24952732	      0.00000000	      0.00000000	     69.35005770	     -0.46429639	     11.92209830	     13.71804227	     27.91534773	      0.00000000	      0.00000000
      7.14000000	     42.47284525	     -0.14594880	   -175.12539164	      0.40049215	      0.77153469	     -0.57815548	     79.16003882	    -17.94118707	     -2.87019441	     35.68129795	      0.62275613	      1.06883841	      0.00000000	      0.00000000	     78.55460337	     -6.40865847	     -0.03338157	     33.86001323	      0.59096872	      0.42602752	      0.00000000	      0.00000000	    -45.45415868	      0.19626405	      0.50662497	     62.97518962	    -23.44645313	     48.74345196	     26.17404200	     60.79627149	      0.00000000	      0.00000000	     68.85305279	     -0.70260315	     11.89177210	     14.66525900	     28.37022070	      0.00000000	      0.00000000
      7.14500000	     42.24769728	     -0.03830032	   -175.29465193	      0.40045791	      0.77262561	     -0.57831055	     78.57963991	    -17.64646670	     -2.86032990	     35.06081786	      0.61192671	      0.68362449	      0.00000000	      0.00000000	     78.22011867	     -6.59873634	      0.01374080	     33.62959838	      0.58694722	      0.16698336	      0.00000000	      0.00000000	    -45.61689686	      0.18113270	      0.71050824	     63.10353026	    -23.30265280	     49.00429826	     25.64389578	     60.79350667	      0.00000000	      0.00000000	     69.16588237	     -0.51436047	     12.18876411	     13.82658045	     28.38337521	      0.00000000	      0.00000000
      7.15000000	     42.15993299	      0.06891028	   -175.22768398	      0.40035428	      0.77319767	     -0.57804657	     78.44867551	    -17.78652833	     -3.35997759	     35.14105068	      0.61332704	      0.80099809	      0.00000000	      0.00000000	     78.02595769	     -6.53896412	      0.11218061	     33.40237482	      0.58298142	      0.26460442	      0.00000000	      0.00000000	    -45.60886206	      0.31970271	      0.66475695	     62.80299134	    -23.32439749	     48.56782671	     26.08663630	     60.40270462	      0.00000000	      0.00000000	     68.65885483	     -0.78909688	     12.18254268	     14.47959630	     28.77565688	      0.00000000	      0.00000000
      7.15500000	     41.73409094	     -0.05956384	   -175.44450149	      0.39999727	      0.77471266	     -0.57839119	     77.73815582	    -17.52624491	     -3.13008096	     34.60200666	      0.60391894	      0.40062885	      0.00000000	      0.00000000	     77.39656604	     -6.77687599	     -0.32867522	     33.18945458	      0.57926526	      0.08827912	      0.00000000	      0.00000000	    -46.03554720	      0.07514691	      0.83085279	     63.19524862	    -23.50647098	     49.79299220	     25.70941893	     61.08592795	      0.00000000	      0.00000000	     69.22027107	     -0.49586027	     12.54290944	     13.42196313	     28.40574613	      0.00000000	      0.00000000
      7.16000000	     41.67780792	      0.01702924	   -175.53572804	      0.40005128	      0.77538576	     -0.57847117	     77.47300670	    -17.38348012	     -3.26121989	     34.26389430	      0.59801777	      0.29404315	      0.00000000	      0.00000000	     77.22957118	     -6.87087371	     -0.25966078	     32.97902482	      0.57559257	     -0.04179065	      0.00000000	      0.00000000	    -45.97670444	      0.10200563	      0.85548456	     64.01562668	    -24.00105778	     53.80399205	     25.36774108	     63.92064761	      0.00000000	      0.00000000	     68.90976585	     -0.66930895	     12.48539038	     13.95882689	     26.61047334	      0.00000000	      0.00000000
      7.16500000	     41.58685401	      0.11387921	   -175.47015959	      0.40001143	      0.77622912	     -0.57821083	     77.14306553	    -17.45012213	     -3.55022544	     33.93876873	      0.59234326	      0.23673381	      0.00000000	      0.00000000	     76.96067456	     -6.77786788	     -0.10184437	     32.60168360	      0.56900672	     -0.12313271	      0.00000000	      0.00000000	    -45.98651004	      0.22936357	      0.87810441	     63.77096495	    -23.93043940	     53.17900752	     25.43967797	     63.46248648	      0.00000000	      0.00000000	     68.76197566	     -0.70562700	     12.58514062	     14.04750908	     26.89649872	      0.00000000	      0.00000000
      7.17000000	     41.45159594	      0.14469140	   -175.46999391	      0.39995646	      0.77714653	     -0.57813113	     76.80480597	    -17.44081402	     -3.72132408	     33.63350681	      0.58701543	      0.05407700	      0.00000000	      0.00000000	     76.64358062	     -6.76351617	     -0.08014075	     32.27737939	      0.56334654	     -0.27754027	      0.00000000	      0.00000000	    -46.04743400	      0.25678553	      0.90910777	     63.57443219	    -23.86173624	     52.68845237	     25.45584191	     63.12588582	      0.00000000	      0.00000000	     68.74364421	     -0.69134225	     12.70030042	     13.94235333	     27.10351413	      0.00000000	      0.00000000
